<svg xmlns="http://www.w3.org/2000/svg" width="43" height="43" viewBox="0 0 43 43">
  <g id="Comment" transform="translate(-3988 -1384)">
    <circle id="Ellipse_75" data-name="Ellipse 75" cx="21.5" cy="21.5" r="21.5" transform="translate(3988 1384)" fill="#5b69bc"/>
    <g id="comment-2" data-name="comment" transform="translate(3998.999 1398.332)">
      <path id="Path_546" data-name="Path 546" d="M18.976-1.332H3.025A3.028,3.028,0,0,0,0,1.693v9.762a3.028,3.028,0,0,0,3.014,3.025v4.43l6.366-4.43h9.6A3.028,3.028,0,0,0,22,11.454V1.693a3.028,3.028,0,0,0-3.025-3.025Zm1.736,12.786a1.738,1.738,0,0,1-1.736,1.736h-10L4.3,16.441V13.19H3.025A1.738,1.738,0,0,1,1.29,11.454V1.693A1.737,1.737,0,0,1,3.025-.043H18.976a1.737,1.737,0,0,1,1.736,1.736Zm0,0" fill="#fff"/>
      <path id="Path_547" data-name="Path 547" d="M171.293,131.172h10.224v1.289H171.293Zm0,0" transform="translate(-165.404 -127.949)" fill="#fff"/>
      <path id="Path_548" data-name="Path 548" d="M171.293,211.172h10.224v1.289H171.293Zm0,0" transform="translate(-165.404 -205.199)" fill="#fff"/>
      <path id="Path_549" data-name="Path 549" d="M171.293,291.172h10.224v1.289H171.293Zm0,0" transform="translate(-165.404 -282.449)" fill="#fff"/>
    </g>
  </g>
</svg>
