<svg xmlns="http://www.w3.org/2000/svg" width="43" height="43" viewBox="0 0 43 43">
  <g id="Likes" transform="translate(-4039 -1384)">
    <circle id="Ellipse_75" data-name="Ellipse 75" cx="21.5" cy="21.5" r="21.5" transform="translate(4039 1384)" fill="#5b69bc"/>
    <g id="like" transform="translate(4043.325 1394)">
      <path id="Path_550" data-name="Path 550" d="M28.015,15.386a2.811,2.811,0,0,0,.658-1.879,2.887,2.887,0,0,0-.615-1.628,2.529,2.529,0,0,0-.6-2.911,5.226,5.226,0,0,0-3.8-.909,14.852,14.852,0,0,0-2.328.3h0c-.237.043-.487.095-.743.151a8.257,8.257,0,0,1,.592-2.75c.663-2.016.625-3.559-.123-4.591A3.008,3.008,0,0,0,18.639,0a1.189,1.189,0,0,0-.913.416,3.184,3.184,0,0,0-.4,2.257C16.7,4.349,14.952,8.457,13.471,9.6a.507.507,0,0,0-.076.066,5.084,5.084,0,0,0-.928,1.391,1.953,1.953,0,0,0-.937-.237H8.644a1.97,1.97,0,0,0-1.969,1.969v7.691a1.97,1.97,0,0,0,1.969,1.969h2.887a1.965,1.965,0,0,0,1.136-.36l1.112.133a47.65,47.65,0,0,0,6.309.345c.563.043,1.093.066,1.585.066a10.619,10.619,0,0,0,2.2-.2,4.115,4.115,0,0,0,2.939-1.827,2.9,2.9,0,0,0,.322-1.813,3.019,3.019,0,0,0,1.074-2.456A3.2,3.2,0,0,0,28.015,15.386ZM8.644,21.169a.692.692,0,0,1-.691-.691v-7.7a.692.692,0,0,1,.691-.691h2.887a.692.692,0,0,1,.691.691v7.691a.692.692,0,0,1-.691.691H8.644ZM26.8,14.832a.636.636,0,0,0-.085.771,1.969,1.969,0,0,1,.218.79,1.894,1.894,0,0,1-.89,1.638.645.645,0,0,0-.218.729,1.671,1.671,0,0,1-.128,1.221,2.96,2.96,0,0,1-2.092,1.2,12.468,12.468,0,0,1-3.45.1h-.066a46.716,46.716,0,0,1-6.153-.336h0l-.478-.057a2.005,2.005,0,0,0,.043-.416v-7.7a2,2,0,0,0-.09-.587,3.956,3.956,0,0,1,.88-1.623c2.125-1.685,4.2-7.369,4.293-7.615a.6.6,0,0,0,.028-.317,2.958,2.958,0,0,1,.062-1.372,1.7,1.7,0,0,1,1.335.639c.483.667.464,1.86-.057,3.441-.8,2.409-.861,3.677-.232,4.236a1.031,1.031,0,0,0,1.032.185c.289-.066.563-.123.823-.166l.062-.014c1.453-.317,4.056-.511,4.96.312a1.362,1.362,0,0,1,.161,1.727.633.633,0,0,0,.114.823,1.793,1.793,0,0,1,.525,1.1A1.758,1.758,0,0,1,26.8,14.832Z" fill="#fff"/>
    </g>
  </g>
</svg>
