<svg xmlns="http://www.w3.org/2000/svg" width="43" height="43" viewBox="0 0 43 43">
  <g id="Group_46" data-name="Group 46" transform="translate(-396 -728)">
    <circle id="Ellipse_70" data-name="Ellipse 70" cx="21.5" cy="21.5" r="21.5" transform="translate(396 728)" fill="#188ae2"/>
    <g id="copy-content" transform="translate(370.25 741.368)">
      <g id="content-copy" transform="translate(38.25)">
        <path id="Path_494" data-name="Path 494" d="M49.75-.368h-10c-.919,0-1,1.081-1,2v12h1v-12h10Zm3,4h-9c-.919,0-2,.081-2,1v12a2.3,2.3,0,0,0,2,2h9c.919,0,1-1.081,1-2v-12C53.75,3.712,53.669,3.632,52.75,3.632Zm0,13h-9v-12h9Z" transform="translate(-38.25)" fill="#fff"/>
      </g>
    </g>
  </g>
</svg>
