<svg xmlns="http://www.w3.org/2000/svg" width="47" height="47.012" viewBox="0 0 47 47.012">
  <g id="Comment" transform="translate(0 -10.494)">
    <path id="Path_536" data-name="Path 536" d="M33.224,10.494H13.776A13.776,13.776,0,0,0,0,24.27V35.615A14.057,14.057,0,0,0,14,49.494h0V56.94c0,.5.384.755.74.4l1.521-1.521a21.851,21.851,0,0,1,15.52-6.325h1.443A13.865,13.865,0,0,0,47,35.615V24.27A13.776,13.776,0,0,0,33.224,10.494Z" fill="#4bb75e"/>
    <circle id="Ellipse_77" data-name="Ellipse 77" cx="3" cy="3" r="3" transform="translate(9 27.494)" fill="#fff"/>
    <circle id="Ellipse_78" data-name="Ellipse 78" cx="3" cy="3" r="3" transform="translate(21 27.494)" fill="#fff"/>
    <circle id="Ellipse_79" data-name="Ellipse 79" cx="3" cy="3" r="3" transform="translate(33 27.494)" fill="#fff"/>
  </g>
</svg>
