<svg xmlns="http://www.w3.org/2000/svg" width="16" height="16" viewBox="0 0 16 16"><defs><style>.a{fill:#858c91;}</style></defs><g transform="translate(0.173 0.173)"><path class="a" d="M14.827,6.827l-1-1c-.116-.385-.809-.646-1-1l1-1a1.259,1.259,0,0,0,0-1l-1-1a1.259,1.259,0,0,0-1,0l-1,1c-.354-.191-.615-.884-1-1l-1-1c-.042-.215.219-1,0-1h-2c-.219,0,.042.785,0,1l-1,1c-.385.116-.646.809-1,1l-1-1a1.259,1.259,0,0,0-1,0l-1,1a1.259,1.259,0,0,0,0,1l1,1c-.191.354-.884.615-1,1l-1,1c-.215.042-1-.219-1,0v2c0,.219.785-.042,1,0l1,1c.116.385.809.646,1,1l-1,1a1.26,1.26,0,0,0,0,1l1,1a1.259,1.259,0,0,0,1,0l1-1c.354.191.615.884,1,1l1,1c.042.215-.219,1,0,1h2c.219,0-.042-.785,0-1l1-1c.385-.116.646-.809,1-1l1,1a1.26,1.26,0,0,0,1,0l1-1a1.259,1.259,0,0,0,0-1l-1-1c.191-.354.884-.615,1-1l1-1c.215-.042,1,.219,1,0v-2C15.827,6.608,15.042,6.87,14.827,6.827Zm0,2h-2c-.175.034.043-.173,0,0a10.953,10.953,0,0,1-1,2c-.092.152-.1-.148,0,0l1,1-1,1-1-1c-.148-.1.152-.092,0,0a10.953,10.953,0,0,1-2,1c-.173.043.035-.175,0,0v2h-2v-2c-.035-.175.173.043,0,0a10.953,10.953,0,0,1-2-1c-.152-.092.148-.1,0,0l-1,1-1-1,1-1c.1-.148.092.152,0,0a10.957,10.957,0,0,1-1-2c-.043-.173.175.034,0,0h-2v-2h2c.175-.035-.043.173,0,0a10.961,10.961,0,0,1,1-2c.092-.152.1.148,0,0l-1-1,1-1,1,1c.148.1-.152.092,0,0a10.961,10.961,0,0,1,2-1c.173-.043-.035.175,0,0v-2h2v2c.035.175-.173-.043,0,0a10.953,10.953,0,0,1,2,1c.152.092-.148.1,0,0l1-1,1,1-1,1c-.1.148-.092-.152,0,0a10.949,10.949,0,0,1,1,2c.043.173-.175-.034,0,0h2Zm0,0"/><path class="a" d="M125.128,121.128a4,4,0,1,0,4,4A3.917,3.917,0,0,0,125.128,121.128Zm0,7a3,3,0,1,1,3-3A2.866,2.866,0,0,1,125.128,128.128Zm0,0" transform="translate(-117.301 -117.3)"/><path class="a" d="M183.293,181.293a2,2,0,1,0,2,2A1.826,1.826,0,0,0,183.293,181.293Zm0,3c-.759,0-1-.241-1-1s.241-1,1-1,1,.241,1,1S184.052,184.293,183.293,184.293Zm0,0" transform="translate(-175.466 -175.466)"/></g></svg>