<svg xmlns="http://www.w3.org/2000/svg" width="16" height="15.117" viewBox="0 0 16 15.117"><defs><style>.a{fill:#858c91;}</style></defs><path class="a" d="M14.715.185c-.151-.114.182-.052,0,0a10.952,10.952,0,0,1-3,0c-.705-.045-1.082,0-2,0a3.018,3.018,0,0,0-2,1,3.018,3.018,0,0,0-2-1c-.918,0-1.295-.045-2,0a10.943,10.943,0,0,1-3,0c-.182-.052.151-.114,0,0s-1,.811-1,1v10a3.471,3.471,0,0,0,1,2c.456.457,1.355,0,2,0h4c.333,0,1,.333,1,0a1.5,1.5,0,0,0-1-1h-4c-.323,0-.772.228-1,0s-1-.676-1-1h0a6.511,6.511,0,0,0,2,0h4c.134,0-.041-.078,0,0,.108.2.784,0,1,0,.1,0-.09.048,0,0,.182-.1.977.189,1,0,.012-.047,0,.051,0,0v-8a.885.885,0,0,1,1-1c.88,0,1.312-.044,2,0a22.617,22.617,0,0,0,3,0v4c0,.333-.333,1,0,1a1.5,1.5,0,0,0,1-1v-5C15.715,1,14.866.3,14.715.185Zm-12,10c-.665,0-2-.335-2-1v-7a22.617,22.617,0,0,0,3,0c.688-.044,1.12,0,2,0a.885.885,0,0,1,1,1v7c-.069-.01.071,0,0,0Zm3-6c0,.333.333,0,0,0h-3c-.333,0,0,.333,0,0s-.333-1,0-1h3C6.048,3.185,5.715,3.852,5.715,4.185Zm-1,2c0,.333.333,1,0,1h-2c-.333,0,0-.667,0-1s-.333,0,0,0h2C5.048,6.185,4.715,5.852,4.715,6.185Zm8,2-4,3a8.049,8.049,0,0,0,0,1l-1,2c-.064.21.847.843,1,1,.115.118-.16,0,0,0,.054,0-.053.015,0,0l3-1c.1-.028-.074.073,0,0l3-3a2.392,2.392,0,0,0,0-3A1.21,1.21,0,0,0,12.715,8.185Zm-2,5h-1v-1l3-2v1Zm3-3h0l-1-1h0a.8.8,0,0,1,1,0A.8.8,0,0,1,13.715,10.185Zm0,0" transform="translate(0.285 -0.121)"/></svg>