<svg xmlns="http://www.w3.org/2000/svg" width="18" height="18.714" viewBox="0 0 18 18.714">
  <g id="manager" transform="translate(-7.937)">
    <path id="Path_521" data-name="Path 521" d="M115.932,8.888l-1.749.53a4.3,4.3,0,0,0,8.578.042l-1.889-.572a.869.869,0,0,0-.34-.422,5.827,5.827,0,0,0,.456-.581,6.107,6.107,0,0,0,.672-1.262,4.847,4.847,0,0,0,.2-.53.965.965,0,0,0,.344-.737v-.7a.961.961,0,0,0-.179-.558V3.12A3.124,3.124,0,0,0,118.908,0H117.9a3.124,3.124,0,0,0-3.12,3.12V4.1a.962.962,0,0,0-.179.558v.7a.966.966,0,0,0,.344.737,4.914,4.914,0,0,0,.2.531,6.109,6.109,0,0,0,.672,1.261,5.788,5.788,0,0,0,.456.581A.87.87,0,0,0,115.932,8.888Zm1.872,2.426a.2.2,0,0,1-.145.172.2.2,0,0,1-.054.007.2.2,0,0,1-.16-.08l-.562-.745a.2.2,0,0,1-.04-.121v-1.2a.2.2,0,0,1,.293-.177,1.669,1.669,0,0,0,.486.173.2.2,0,0,1,.165.2v.5a.2.2,0,0,1,.126.207Zm2.158-.766a.2.2,0,0,1-.04.121l-.561.745a.2.2,0,0,1-.16.08.2.2,0,0,1-.054-.007.2.2,0,0,1-.145-.172l-.11-1.063a.2.2,0,0,1,.126-.207v-.5a.2.2,0,0,1,.165-.2,1.669,1.669,0,0,0,.485-.173.2.2,0,0,1,.294.177v1.2Zm-4-4.941-.011-.083-.194-.126a.2.2,0,0,1-.091-.168V4.9a.2.2,0,0,1,.2-.2h.082V4.344a.2.2,0,0,1,.111-.179,3.3,3.3,0,0,1,1.387-.368,1.487,1.487,0,0,1,1.113.446,1.669,1.669,0,0,0,1.224.557,1.933,1.933,0,0,0,.791-.181.2.2,0,0,1,.254.081h.109a.2.2,0,0,1,.2.2V5.23a.2.2,0,0,1-.091.168l-.194.126-.011.082a4.138,4.138,0,0,1-.718,1.658c-.489.709-.947,1.027-1.185,1.027h-1.075c-.237,0-.7-.318-1.185-1.027A4.137,4.137,0,0,1,115.962,5.607Z" transform="translate(-101.465)" fill="#4bb75e"/>
    <path id="Path_522" data-name="Path 522" d="M24.991,185.839H23.159a.946.946,0,0,0-.946.946,5.2,5.2,0,0,1-10.407,0,.946.946,0,0,0-.946-.946H8.883a.946.946,0,1,0,0,1.892H9.976a7.057,7.057,0,0,0,1.278,3.2l-.9.9a.946.946,0,0,0,1.338,1.338l.864-.864a7.066,7.066,0,0,0,3.435,1.5v1.437a.946.946,0,0,0,1.892,0v-1.417a7.062,7.062,0,0,0,3.5-1.457l.8.8a.946.946,0,0,0,1.338-1.338l-.818-.818a7.059,7.059,0,0,0,1.339-3.284h.949a.946.946,0,0,0,0-1.892Z" transform="translate(0 -177.476)" fill="#4bb75e"/>
  </g>
</svg>
