<svg xmlns="http://www.w3.org/2000/svg" width="19.315" height="12" viewBox="0 0 19.315 12"><defs><style>.a{fill:#858c91;}</style></defs><g transform="translate(-0.495 -99.032)"><path class="a" d="M9.652,99.032c-3.851,0-6.423,1.578-9,5a.871.871,0,0,0,0,1c2.577,3.426,5.149,6,9,6s7.423-2.578,10-6a.871.871,0,0,0,0-1A12.14,12.14,0,0,0,9.652,99.032Zm1,10a5.055,5.055,0,0,1-5-5,4.336,4.336,0,0,1,4-4,5.055,5.055,0,0,1,5,5A4.35,4.35,0,0,1,10.652,109.032Zm0-2c-1.377.087-3.091-.623-3-2,.07-1.138.862-2.926,2-3a3.283,3.283,0,0,1,3,3A2.052,2.052,0,0,1,10.652,107.032Z" transform="translate(0)"/></g></svg>