<svg xmlns="http://www.w3.org/2000/svg" width="62.683" height="47.012" viewBox="0 0 62.683 47.012">
  <g id="View" transform="translate(0 -64.444)">
    <path id="Path_544" data-name="Path 544" d="M31.341,64.444C16.859,64.444,4.573,74.265,0,87.95c4.573,13.685,16.859,23.506,31.341,23.506S58.11,101.635,62.683,87.95C58.11,74.265,45.823,64.444,31.341,64.444Zm0,39.177A15.671,15.671,0,1,1,47.012,87.95,15.671,15.671,0,0,1,31.341,103.621Z" fill="#4bb75e"/>
    <path id="Path_545" data-name="Path 545" d="M206.709,195.629a7.835,7.835,0,1,1-11.081,0,7.835,7.835,0,0,1,11.081,0" transform="translate(-169.828 -113.219)" fill="#4bb75e"/>
  </g>
</svg>
