<svg xmlns="http://www.w3.org/2000/svg" width="12" height="12" viewBox="0 0 12 12"><defs><style>.a{fill:#788079;}</style></defs><g transform="translate(-1.27 -1.997)"><path class="a" d="M7.77,6.747H4.02c-.211,0,0-.211,0,0s-.211.75,0,.75H7.77a1.311,1.311,0,0,0,.75-.75C8.52,6.536,7.982,6.747,7.77,6.747ZM8.52,4.5H3.27c-.211,0,0-.211,0,0s-.211.75,0,.75H8.52a1.311,1.311,0,0,0,.75-.75C9.27,4.286,8.732,4.5,8.52,4.5ZM6.27,0c-3.381,0-6,2.291-6,5.25a5.675,5.675,0,0,0,2.25,4.5V12l2.25-1.5a12.257,12.257,0,0,0,1.5,0c3.381,0,6-2.291,6-5.25S9.652,0,6.27,0Zm0,9.75a8.5,8.5,0,0,1-1.5,0l-1.5,1.5V9a4.385,4.385,0,0,1-2.25-3.75c0-2.536,2.291-4.5,5.25-4.5s5.25,1.964,5.25,4.5S9.229,9.747,6.27,9.747Z" transform="translate(1 2)"/></g></svg>