<svg xmlns="http://www.w3.org/2000/svg" width="41.4" height="47.012" viewBox="0 0 41.4 47.012">
  <g id="like" transform="translate(-30.556)">
    <g id="Group_58" data-name="Group 58" transform="translate(60.916 8.279)">
      <g id="Group_57" data-name="Group 57">
        <path id="Path_538" data-name="Path 538" d="M365.347,90.17h-2.76a1.38,1.38,0,1,0,0,2.76h2.76a1.38,1.38,0,0,0,0-2.76Z" transform="translate(-361.207 -90.17)" fill="#4bb75e"/>
      </g>
    </g>
    <g id="Group_60" data-name="Group 60" transform="translate(47.116 0)">
      <g id="Group_59" data-name="Group 59" transform="translate(0)">
        <path id="Path_539" data-name="Path 539" d="M214.9,3.522l-1.38-2.76A1.38,1.38,0,0,0,211.053,2l1.38,2.76A1.38,1.38,0,1,0,214.9,3.522Z" transform="translate(-210.907 0)" fill="#4bb75e"/>
      </g>
    </g>
    <g id="Group_62" data-name="Group 62" transform="translate(56.776 0)">
      <g id="Group_61" data-name="Group 61">
        <path id="Path_540" data-name="Path 540" d="M319.49.145a1.383,1.383,0,0,0-1.852.617l-1.38,2.76a1.38,1.38,0,1,0,2.469,1.235L320.107,2A1.38,1.38,0,0,0,319.49.145Z" transform="translate(-316.112 0)" fill="#4bb75e"/>
      </g>
    </g>
    <g id="Group_64" data-name="Group 64" transform="translate(41.596 8.279)">
      <g id="Group_63" data-name="Group 63" transform="translate(0)">
        <path id="Path_541" data-name="Path 541" d="M154.933,90.17h-2.76a1.38,1.38,0,1,0,0,2.76h2.76a1.38,1.38,0,1,0,0-2.76Z" transform="translate(-150.793 -90.17)" fill="#4bb75e"/>
      </g>
    </g>
    <g id="Group_66" data-name="Group 66" transform="translate(30.556 22.172)">
      <g id="Group_65" data-name="Group 65" transform="translate(0)">
        <path id="Path_542" data-name="Path 542" d="M37.456,241.468h-5.52a1.38,1.38,0,0,0-1.38,1.38v22.08a1.38,1.38,0,0,0,1.38,1.38h5.52a1.38,1.38,0,0,0,1.38-1.38v-22.08A1.38,1.38,0,0,0,37.456,241.468Z" transform="translate(-30.556 -241.468)" fill="#4bb75e"/>
      </g>
    </g>
    <g id="Group_68" data-name="Group 68" transform="translate(41.596 8.371)">
      <g id="Group_67" data-name="Group 67" transform="translate(0)">
        <path id="Path_543" data-name="Path 543" d="M181.127,108.63a4.34,4.34,0,0,0-4.4-3.658H165.97c.914-1.637,1.405-6.268,1.383-8.16a5.746,5.746,0,0,0-5.76-5.641h-1.139a1.379,1.379,0,0,0-1.38,1.38c0,3.191-1.243,8.951-3.586,11.295a15.287,15.287,0,0,1-4.694,3.033v20.707a32.237,32.237,0,0,0,11.383,2.226H171.2a4.2,4.2,0,0,0,4.139-5.666,4.141,4.141,0,0,0,2.76-5.52,4.142,4.142,0,0,0,1.995-6.755A4.131,4.131,0,0,0,181.127,108.63Z" transform="translate(-150.794 -91.172)" fill="#4bb75e"/>
      </g>
    </g>
  </g>
</svg>
