<svg xmlns="http://www.w3.org/2000/svg" width="43" height="43" viewBox="0 0 43 43">
  <g id="Login" transform="translate(-4183 -1384)">
    <circle id="Ellipse_75" data-name="Ellipse 75" cx="21.5" cy="21.5" r="21.5" transform="translate(4183 1384)" fill="#5b69bc"/>
    <g id="login-2" data-name="login" transform="translate(4194 1395)">
      <g id="Group_51" data-name="Group 51" transform="translate(0)">
        <g id="Group_50" data-name="Group 50" transform="translate(0)">
          <path id="Path_523" data-name="Path 523" d="M5.651,20.281H2.608a.873.873,0,0,1-.687-.327.9.9,0,0,1-.182-.753,9.495,9.495,0,0,1,9.043-7.519c.073,0,.146,0,.219,0s.148,0,.221,0a9.412,9.412,0,0,1,3.1.6.859.859,0,0,0,.6-1.609q-.213-.08-.429-.151a5.844,5.844,0,1,0-7,0A11.175,11.175,0,0,0,.056,18.851,2.611,2.611,0,0,0,2.608,22H5.651a.859.859,0,0,0,0-1.719ZM6.875,5.844A4.125,4.125,0,1,1,11.2,9.964l-.2,0-.2,0A4.13,4.13,0,0,1,6.875,5.844Z" transform="translate(0)" fill="#fff"/>
          <path id="Path_524" data-name="Path 524" d="M161.068,314.358A2.316,2.316,0,0,0,158.955,313h-2.686a2.275,2.275,0,0,0-2.15,1.453c-.045.117-.1.265-.158.438h-5.627a.859.859,0,0,0-.617.261l-1.476,1.521a.859.859,0,0,0,0,1.2l1.5,1.53a.859.859,0,0,0,.613.257h2.793a.859.859,0,1,0,0-1.719h-2.433l-.663-.675.638-.657h5.908a.859.859,0,0,0,.835-.655,7.1,7.1,0,0,1,.283-.885.563.563,0,0,1,.547-.351h2.682a.586.586,0,0,1,.546.341,5.55,5.55,0,0,1,.508,2.191,5.714,5.714,0,0,1-.5,2.23.587.587,0,0,1-.54.352h-2.714a.612.612,0,0,1-.554-.381,5.713,5.713,0,0,1-.266-.851.859.859,0,1,0-1.672.4,7.4,7.4,0,0,0,.349,1.106,2.318,2.318,0,0,0,2.141,1.444h2.718a2.3,2.3,0,0,0,2.113-1.384,7.439,7.439,0,0,0,.648-2.921A7.276,7.276,0,0,0,161.068,314.358Z" transform="translate(-139.726 -299.551)" fill="#fff"/>
          <circle id="Ellipse_74" data-name="Ellipse 74" cx="0.859" cy="0.859" r="0.859" transform="translate(17.66 16.844)" fill="#fff"/>
        </g>
      </g>
    </g>
  </g>
</svg>
