<svg xmlns="http://www.w3.org/2000/svg" width="16.055" height="16" viewBox="0 0 16.055 16"><defs><style>.a{fill:#858c91;}</style></defs><g transform="translate(0.172 -0.503)"><g transform="translate(0 0.85)"><path class="a" d="M7.828,15.5h-6a1.409,1.409,0,0,1-1-1V2.5c0-.359.641,0,1,0h6a1.406,1.406,0,0,0,1-1,1.406,1.406,0,0,0-1-1h-6a2.039,2.039,0,0,0-2,2v12a2.039,2.039,0,0,0,2,2h6a1.406,1.406,0,0,0,1-1C8.828,15.143,8.188,15.5,7.828,15.5Z" transform="translate(0 -0.85)"/></g><g transform="translate(5.201 4.101)"><path class="a" d="M180.727,111.566l-4-4a.707.707,0,0,0-1,1l3,2h-8a1,1,0,0,0,0,2h8l-3,3a.752.752,0,0,0,0,1c.127.129-.168,0,0,0s.874.125,1,0l4-4c.124-.122,0-.826,0-1S180.851,111.689,180.727,111.566Z" transform="translate(-170.1 -107.165)"/></g></g></svg>