<svg xmlns="http://www.w3.org/2000/svg" width="18" height="18.717" viewBox="0 0 18 18.717">
  <g id="admin" transform="translate(-9.802)">
    <g id="Group_49" data-name="Group 49" transform="translate(9.802)">
      <path id="Path_520" data-name="Path 520" d="M27.579,11.852l-1.924-1.584a6.576,6.576,0,0,0,0-1.819l1.924-1.584a.61.61,0,0,0,.141-.776L26.092,3.27A.609.609,0,0,0,25.35,3l-2.338.876a6.861,6.861,0,0,0-1.57-.907L21.031.51a.61.61,0,0,0-.6-.51H17.174a.61.61,0,0,0-.6.51l-.41,2.462a6.866,6.866,0,0,0-1.57.907L12.254,3a.609.609,0,0,0-.743.266L9.884,6.089a.61.61,0,0,0,.141.776l1.924,1.584a6.58,6.58,0,0,0,0,1.819l-1.924,1.584a.61.61,0,0,0-.141.776l1.628,2.819a.609.609,0,0,0,.743.266l2.338-.876a6.861,6.861,0,0,0,1.57.907l.41,2.462a.61.61,0,0,0,.6.51h3.255a.61.61,0,0,0,.6-.51l.41-2.462a6.866,6.866,0,0,0,1.57-.907l2.338.876a.609.609,0,0,0,.743-.266l1.628-2.819A.61.61,0,0,0,27.579,11.852ZM20.023,17.5H17.581V14.08a4.833,4.833,0,0,0,1.221.16,4.758,4.758,0,0,0,1.221-.16V17.5Zm.134-4.738-.042.014a3.619,3.619,0,0,1-2.641,0l-.026-.009A3.658,3.658,0,0,1,16.514,6.5a.407.407,0,0,1,.66.318V9.155a.2.2,0,0,0,.1.177l1.424.814a.2.2,0,0,0,.2,0l1.424-.814a.2.2,0,0,0,.1-.177V6.819a.407.407,0,0,1,.66-.318,3.658,3.658,0,0,1-.933,6.257Z" transform="translate(-9.802)" fill="#4bb75e"/>
    </g>
  </g>
</svg>
