<svg xmlns="http://www.w3.org/2000/svg" width="37" height="37" viewBox="0 0 37 37">
  <g id="Group_52" data-name="Group 52" transform="translate(-740 -95)">
    <g id="Ellipse_59" data-name="Ellipse 59" transform="translate(740 95)" fill="none" stroke="#dce1dc" stroke-width="1">
      <circle cx="18.5" cy="18.5" r="18.5" stroke="none"/>
      <circle cx="18.5" cy="18.5" r="18" fill="none"/>
    </g>
    <path id="chat" d="M8,1.5c-4.411,0-8,3.23-8,7.2a6.656,6.656,0,0,0,1.271,3.894,6.217,6.217,0,0,1-1.193,3.65.267.267,0,0,0,.189.455l.037,0a14.246,14.246,0,0,0,4.431-1.424A8.68,8.68,0,0,0,8,15.9c4.411,0,8-3.23,8-7.2S12.411,1.5,8,1.5ZM4.267,9.767A1.067,1.067,0,1,1,5.333,8.7,1.068,1.068,0,0,1,4.267,9.767ZM8,9.767A1.067,1.067,0,1,1,9.067,8.7,1.068,1.068,0,0,1,8,9.767Zm3.733,0A1.067,1.067,0,1,1,12.8,8.7,1.068,1.068,0,0,1,11.733,9.767Z" transform="translate(751 104.5)" fill="#4bb75e"/>
  </g>
</svg>
