<svg xmlns="http://www.w3.org/2000/svg" width="16" height="18" viewBox="0 0 16 18"><defs><style>.a{fill:#858c91;}</style></defs><g transform="translate(0.286 -0.124)"><path class="a" d="M13.714,5.124h0c.29-.949.711-2.311,1-3,.113-.271.271-.889,0-1a19.237,19.237,0,0,0-7-1h0a19.237,19.237,0,0,0-7,1c-.271.111-.113.729,0,1,.289.689.71,2.051,1,3h0a7.715,7.715,0,0,0-2,5v6a1.674,1.674,0,0,0,1,1h3a6.225,6.225,0,0,0,4,1,6.224,6.224,0,0,0,4-1h3a1.675,1.675,0,0,0,1-1v-6A7.715,7.715,0,0,0,13.714,5.124Zm-6-4h0a17.9,17.9,0,0,1,6,1c-.242.659-1.858,3.612-2,4-1.387-.5-2.515,0-4,0s-2.613-.5-4,0c-.142-.388-1.758-3.341-2-4A17.9,17.9,0,0,1,7.714,1.124Zm-4,12a4.879,4.879,0,0,1,1-3c.593.673,1.12.578,2,1a6,6,0,0,0,3,1,18.621,18.621,0,0,0,3,0c.028.2,0,.794,0,1,0,2.495-2.506,4-5,4A3.685,3.685,0,0,1,3.714,13.124Zm11,3h-2a5.137,5.137,0,0,0,1-3c0-.481-.879-1.538-1-2-.037-.142.128.071,0,0s.14-.044,0,0a12.867,12.867,0,0,1-3,0c-2.266,0-3.9-.435-5-2-.185-.263-.767-1.221-1-1a8.12,8.12,0,0,0-2,5,5.137,5.137,0,0,0,1,3h-2v-6c0-1.24,1.24-3.038,2-4,.132.393-.133.682,0,1,.114.271.728,1.111,1,1a9.765,9.765,0,0,1,4-1,9.763,9.763,0,0,1,4,1c.268.11.888-.733,1-1,.133-.318.868-.607,1-1a7.2,7.2,0,0,1,1,4Zm0,0" transform="translate(0)"/><path class="a" d="M175,52.393h0v-1c0-.294-.7,0-1,0s0-.294,0,0v1h-1c-.3,0-1-.294-1,0a1.678,1.678,0,0,0,1,1h1c0,.294-.3,1,0,1a1.678,1.678,0,0,0,1-1h0a1.679,1.679,0,0,0,1-1C176,52.1,175.291,52.393,175,52.393Zm0,0" transform="translate(-166.282 -49.269)"/></g></svg>