<svg xmlns="http://www.w3.org/2000/svg" width="15.13" height="14.13" viewBox="0 0 15.13 14.13"><defs><style>.a{fill:#188ae2;}</style></defs><g transform="translate(0.285 -13.287)"><path class="a" d="M134.274,21.287a4,4,0,1,0-4-4A4.017,4.017,0,0,0,134.274,21.287Zm0-7a3,3,0,1,1-3,3A3.061,3.061,0,0,1,134.274,14.287Z" transform="translate(-126.559 0)"/><path class="a" d="M.715,346.16h14c.293,0,0,.293,0,0a5.013,5.013,0,0,0-5-5h-5a5.013,5.013,0,0,0-5,5C-.285,346.453.423,346.16.715,346.16Zm4-4h5c2,0,3.744,1.072,4,3h-13C.972,343.244,2.714,342.16,4.715,342.16Z" transform="translate(0 -318.873)"/></g></svg>