<svg xmlns="http://www.w3.org/2000/svg" width="19" height="18.969" viewBox="0 0 19 18.969">
  <g id="team" transform="translate(0 -0.1)">
    <circle id="Ellipse_71" data-name="Ellipse 71" cx="1.874" cy="1.874" r="1.874" transform="translate(1.146 0.1)" fill="#4bb75e"/>
    <path id="Path_515" data-name="Path 515" d="M.929,34.669h.186v3.716a.932.932,0,0,0,.929.929H4a.932.932,0,0,0,.929-.929v-.217a2.349,2.349,0,0,1-.279-1.084V32.222A2.317,2.317,0,0,1,6.039,30.1v-.372A.932.932,0,0,0,5.11,28.8H.929A.932.932,0,0,0,0,29.729V33.74A.922.922,0,0,0,.929,34.669Z" transform="translate(0 -24.256)" fill="#4bb75e"/>
    <circle id="Ellipse_72" data-name="Ellipse 72" cx="1.874" cy="1.874" r="1.874" transform="translate(14.122 0.1)" fill="#4bb75e"/>
    <path id="Path_516" data-name="Path 516" d="M83.7,29.629V30a2.317,2.317,0,0,1,1.394,2.121v4.847a2.175,2.175,0,0,1-.279,1.084v.217a.932.932,0,0,0,.929.929h1.951a.932.932,0,0,0,.929-.929V34.553h.186a.932.932,0,0,0,.929-.929v-4a.932.932,0,0,0-.929-.929H84.628A.932.932,0,0,0,83.7,29.629Z" transform="translate(-70.738 -24.171)" fill="#4bb75e"/>
    <path id="Path_517" data-name="Path 517" d="M39.1,45.829h0v4.862a.932.932,0,0,0,.929.929h.356V56a.932.932,0,0,0,.929.929h2.493A.932.932,0,0,0,44.737,56V51.6h.356a.932.932,0,0,0,.929-.929V45.829h0a.932.932,0,0,0-.929-.929H40.029A.922.922,0,0,0,39.1,45.829Z" transform="translate(-33.045 -37.863)" fill="#4bb75e"/>
    <circle id="Ellipse_73" data-name="Ellipse 73" cx="2.152" cy="2.152" r="2.152" transform="translate(7.355 1.958)" fill="#4bb75e"/>
  </g>
</svg>
